<?xml version="1.0" standalone="no"?><!DOCTYPE svg PUBLIC "-//W3C//DTD SVG 1.1//EN" "http://www.w3.org/Graphics/SVG/1.1/DTD/svg11.dtd"><svg t="1692603928001" class="icon" viewBox="0 0 1024 1024" version="1.1" xmlns="http://www.w3.org/2000/svg" p-id="5076" xmlns:xlink="http://www.w3.org/1999/xlink" width="200" height="200"><path d="M561.886638 277.744789a185.588981 185.588981 0 0 0-137.591831 56.956618 186.868905 186.868905 0 0 0-56.956618 138.231793 181.109247 181.109247 0 0 0 49.917036 127.9924 44.157378 44.157378 0 0 0 7.039582 8.319506 186.228943 186.228943 0 0 0 135.671945 55.676694 184.309057 184.309057 0 0 0 137.59183-56.956618 186.228943 186.228943 0 0 0 56.956619-137.59183 186.868905 186.868905 0 0 0-56.956619-138.231793 184.309057 184.309057 0 0 0-135.671944-54.39677z" fill="#4A4A4A" p-id="5077"></path><path d="M941.384105 231.667525a519.649146 519.649146 0 0 0-63.9962-79.995251A497.890438 497.890438 0 0 0 694.998734 33.919266 504.290058 504.290058 0 0 0 511.969602 0.00128a503.650096 503.650096 0 0 0-177.269475 33.917986 494.690628 494.690628 0 0 0-180.469284 117.753008A491.490818 491.490818 0 0 0 5.119696 511.970882a490.850856 490.850856 0 0 0 149.111147 360.298607A491.490818 491.490818 0 0 0 511.969602 1023.940484a491.490818 491.490818 0 0 0 360.298607-149.111147 551.647246 551.647246 0 0 0 63.9962-79.99525A491.490818 491.490818 0 0 0 1023.939204 511.970882a492.13078 492.13078 0 0 0-82.555099-280.303357zM729.556683 639.963282a229.106397 229.106397 0 0 1-167.670045 69.115896 228.466435 228.466435 0 0 1-151.031033-53.756808l-145.271374 127.992401a20.478784 20.478784 0 0 1-14.079164 5.119696 21.758708 21.758708 0 0 1-15.99905-7.039582 21.118746 21.118746 0 0 1 0-30.078214L383.977201 625.884118a229.106397 229.106397 0 0 1-56.316656-152.950918 231.026283 231.026283 0 0 1 66.556048-168.310007 229.106397 229.106397 0 0 1 167.670045-69.115896 229.106397 229.106397 0 0 1 167.670045 69.115896 231.026283 231.026283 0 0 1 69.755858 168.310007A229.746359 229.746359 0 0 1 729.556683 639.963282z" fill="#4A4A4A" p-id="5078"></path></svg>